<mxfile host="www.draw.io" modified="2019-11-22T15:36:16.184Z" agent="Mozilla/5.0 (Windows NT 10.0; Win64; x64) AppleWebKit/537.36 (KHTML, like Gecko) Chrome/72.0.3626.96 Safari/537.36" etag="P5XQKO3qBJdzWdFjBAUz" version="12.2.9" type="github" pages="1">
  <diagram id="OdHOOhYmZbZpa80g2KKO" name="Page-1">
    <mxGraphModel dx="1391" dy="641" grid="1" gridSize="10" guides="1" tooltips="1" connect="1" arrows="1" fold="1" page="1" pageScale="1" pageWidth="827" pageHeight="1169" math="0" shadow="0">
      <root>
        <mxCell id="0"/>
        <mxCell id="1" parent="0"/>
        <mxCell id="CJHnajEqTu75ODsMof4P-1" value="&lt;span style=&quot;font-size: 17px&quot;&gt;&lt;b&gt;Server&amp;nbsp;Channel&lt;br&gt;&lt;/b&gt;&lt;/span&gt;" style="rounded=1;whiteSpace=wrap;html=1;fillColor=#d0cee2;strokeColor=#56517e;" vertex="1" parent="1">
          <mxGeometry x="20" y="20" width="320" height="80" as="geometry"/>
        </mxCell>
        <mxCell id="CJHnajEqTu75ODsMof4P-2" value="OP_ACCEPT" style="text;html=1;fontSize=13;fontStyle=1;horizontal=0;fontColor=#990000;" vertex="1" parent="1">
          <mxGeometry x="30" y="180" width="150" height="30" as="geometry"/>
        </mxCell>
        <mxCell id="CJHnajEqTu75ODsMof4P-3" value="&lt;b&gt;&lt;font style=&quot;font-size: 21px&quot;&gt;Selector&lt;br&gt;&lt;br&gt;&lt;/font&gt;&lt;/b&gt;" style="rounded=1;whiteSpace=wrap;html=1;strokeColor=#E6E6E6;fillColor=#999999;fontSize=13;" vertex="1" parent="1">
          <mxGeometry x="20" y="239" width="319" height="81" as="geometry"/>
        </mxCell>
        <mxCell id="CJHnajEqTu75ODsMof4P-4" value="轮询事件的发生" style="text;html=1;fontSize=13;fontStyle=1" vertex="1" parent="1">
          <mxGeometry x="130" y="279.5" width="100" height="30" as="geometry"/>
        </mxCell>
        <mxCell id="CJHnajEqTu75ODsMof4P-5" value="" style="endArrow=classic;html=1;strokeColor=#10739e;strokeWidth=2;fontSize=13;exitX=0.034;exitY=1;exitDx=0;exitDy=0;exitPerimeter=0;entryX=0.038;entryY=-0.012;entryDx=0;entryDy=0;entryPerimeter=0;fillColor=#b1ddf0;" edge="1" parent="1">
          <mxGeometry width="50" height="50" relative="1" as="geometry">
            <mxPoint x="59.88000000000011" y="101" as="sourcePoint"/>
            <mxPoint x="61.121999999999844" y="239.02800000000002" as="targetPoint"/>
          </mxGeometry>
        </mxCell>
        <mxCell id="CJHnajEqTu75ODsMof4P-6" value="" style="endArrow=classic;html=1;strokeColor=#10739e;strokeWidth=2;fontSize=13;exitX=0.034;exitY=1;exitDx=0;exitDy=0;exitPerimeter=0;entryX=0.038;entryY=-0.012;entryDx=0;entryDy=0;entryPerimeter=0;fillColor=#b1ddf0;" edge="1" parent="1">
          <mxGeometry width="50" height="50" relative="1" as="geometry">
            <mxPoint x="178.3800000000001" y="100" as="sourcePoint"/>
            <mxPoint x="179.62199999999984" y="238.02800000000002" as="targetPoint"/>
          </mxGeometry>
        </mxCell>
        <mxCell id="CJHnajEqTu75ODsMof4P-7" value="" style="endArrow=classic;html=1;strokeColor=#10739e;strokeWidth=2;fontSize=13;exitX=0.034;exitY=1;exitDx=0;exitDy=0;exitPerimeter=0;entryX=0.038;entryY=-0.012;entryDx=0;entryDy=0;entryPerimeter=0;fillColor=#b1ddf0;" edge="1" parent="1">
          <mxGeometry width="50" height="50" relative="1" as="geometry">
            <mxPoint x="299.8800000000001" y="100" as="sourcePoint"/>
            <mxPoint x="301.12199999999984" y="238.02800000000002" as="targetPoint"/>
          </mxGeometry>
        </mxCell>
        <mxCell id="CJHnajEqTu75ODsMof4P-8" value="OP_READ" style="text;html=1;fontSize=13;fontStyle=1;horizontal=0;" vertex="1" parent="1">
          <mxGeometry x="150" y="165" width="150" height="30" as="geometry"/>
        </mxCell>
        <mxCell id="CJHnajEqTu75ODsMof4P-9" value="OP_WRITE" style="text;html=1;fontSize=13;fontStyle=1;horizontal=0;" vertex="1" parent="1">
          <mxGeometry x="270" y="170" width="150" height="30" as="geometry"/>
        </mxCell>
        <mxCell id="CJHnajEqTu75ODsMof4P-10" style="edgeStyle=orthogonalEdgeStyle;curved=1;rounded=0;orthogonalLoop=1;jettySize=auto;html=1;entryX=0;entryY=0.5;entryDx=0;entryDy=0;startArrow=none;startFill=0;endArrow=classic;endFill=1;strokeColor=#CC0066;strokeWidth=2;fontSize=13;fontColor=#990000;" edge="1" parent="1" target="CJHnajEqTu75ODsMof4P-36">
          <mxGeometry relative="1" as="geometry">
            <mxPoint x="500" y="280" as="sourcePoint"/>
            <Array as="points">
              <mxPoint x="500" y="300"/>
            </Array>
          </mxGeometry>
        </mxCell>
        <mxCell id="CJHnajEqTu75ODsMof4P-11" value="&lt;span style=&quot;text-align: left&quot;&gt;&lt;b&gt;&lt;font style=&quot;font-size: 12px&quot;&gt;轮询&lt;br&gt;selectedKeys&lt;/font&gt;&lt;/b&gt;&lt;/span&gt;" style="ellipse;whiteSpace=wrap;html=1;aspect=fixed;strokeColor=#E6E6E6;fillColor=#999999;fontSize=13;" vertex="1" parent="1">
          <mxGeometry x="420" y="240" width="80" height="80" as="geometry"/>
        </mxCell>
        <mxCell id="CJHnajEqTu75ODsMof4P-12" value="" style="endArrow=none;html=1;strokeColor=#CC0066;strokeWidth=2;fontSize=13;exitX=1;exitY=0.5;exitDx=0;exitDy=0;" edge="1" parent="1" source="CJHnajEqTu75ODsMof4P-3" target="CJHnajEqTu75ODsMof4P-11">
          <mxGeometry width="50" height="50" relative="1" as="geometry">
            <mxPoint x="380" y="290" as="sourcePoint"/>
            <mxPoint x="430" y="240" as="targetPoint"/>
          </mxGeometry>
        </mxCell>
        <mxCell id="CJHnajEqTu75ODsMof4P-13" style="edgeStyle=orthogonalEdgeStyle;curved=1;rounded=0;orthogonalLoop=1;jettySize=auto;html=1;exitX=0;exitY=0.5;exitDx=0;exitDy=0;entryX=1;entryY=0.5;entryDx=0;entryDy=0;startArrow=classic;startFill=1;endArrow=oval;endFill=1;strokeColor=#10739e;strokeWidth=2;fontSize=13;fillColor=#b1ddf0;" edge="1" parent="1" source="CJHnajEqTu75ODsMof4P-15" target="CJHnajEqTu75ODsMof4P-11">
          <mxGeometry relative="1" as="geometry">
            <Array as="points">
              <mxPoint x="500" y="180"/>
            </Array>
          </mxGeometry>
        </mxCell>
        <mxCell id="CJHnajEqTu75ODsMof4P-14" style="edgeStyle=orthogonalEdgeStyle;curved=1;rounded=0;orthogonalLoop=1;jettySize=auto;html=1;exitX=1;exitY=0.5;exitDx=0;exitDy=0;startArrow=none;startFill=0;endArrow=classic;endFill=1;strokeColor=#10739e;strokeWidth=2;fontSize=13;entryX=0.897;entryY=1;entryDx=0;entryDy=0;entryPerimeter=0;fillColor=#b1ddf0;" edge="1" parent="1" source="CJHnajEqTu75ODsMof4P-15" target="CJHnajEqTu75ODsMof4P-25">
          <mxGeometry relative="1" as="geometry">
            <mxPoint x="710" y="100" as="targetPoint"/>
            <Array as="points">
              <mxPoint x="707" y="180"/>
            </Array>
          </mxGeometry>
        </mxCell>
        <mxCell id="CJHnajEqTu75ODsMof4P-15" value="&lt;b&gt;isAcceptable&lt;/b&gt;" style="rounded=1;whiteSpace=wrap;html=1;strokeColor=#E6E6E6;fillColor=#999999;fontSize=13;" vertex="1" parent="1">
          <mxGeometry x="580" y="160" width="90" height="40" as="geometry"/>
        </mxCell>
        <mxCell id="CJHnajEqTu75ODsMof4P-16" style="edgeStyle=orthogonalEdgeStyle;curved=1;rounded=0;orthogonalLoop=1;jettySize=auto;html=1;exitX=0;exitY=0.5;exitDx=0;exitDy=0;startArrow=classic;startFill=1;endArrow=oval;endFill=1;strokeColor=#CC0066;strokeWidth=2;fontSize=13;" edge="1" parent="1" source="CJHnajEqTu75ODsMof4P-19">
          <mxGeometry relative="1" as="geometry">
            <mxPoint x="500" y="280" as="targetPoint"/>
          </mxGeometry>
        </mxCell>
        <mxCell id="CJHnajEqTu75ODsMof4P-17" style="edgeStyle=orthogonalEdgeStyle;curved=1;rounded=0;orthogonalLoop=1;jettySize=auto;html=1;exitX=1;exitY=0.5;exitDx=0;exitDy=0;startArrow=none;startFill=0;endArrow=classic;endFill=1;strokeColor=#CC0066;strokeWidth=2;fontSize=13;entryX=0.897;entryY=1.013;entryDx=0;entryDy=0;entryPerimeter=0;" edge="1" parent="1" source="CJHnajEqTu75ODsMof4P-19" target="CJHnajEqTu75ODsMof4P-25">
          <mxGeometry relative="1" as="geometry">
            <mxPoint x="710" y="110" as="targetPoint"/>
            <Array as="points">
              <mxPoint x="707" y="240"/>
            </Array>
          </mxGeometry>
        </mxCell>
        <mxCell id="CJHnajEqTu75ODsMof4P-18" style="edgeStyle=orthogonalEdgeStyle;curved=1;rounded=0;orthogonalLoop=1;jettySize=auto;html=1;exitX=1;exitY=0.5;exitDx=0;exitDy=0;entryX=0.875;entryY=0.013;entryDx=0;entryDy=0;entryPerimeter=0;startArrow=none;startFill=0;endArrow=classic;endFill=1;strokeColor=#CC0066;strokeWidth=2;fontSize=13;fontColor=#990000;" edge="1" parent="1" source="CJHnajEqTu75ODsMof4P-19" target="CJHnajEqTu75ODsMof4P-34">
          <mxGeometry relative="1" as="geometry">
            <Array as="points">
              <mxPoint x="700" y="240"/>
            </Array>
          </mxGeometry>
        </mxCell>
        <mxCell id="CJHnajEqTu75ODsMof4P-19" value="&lt;b&gt;isReadable&lt;/b&gt;" style="rounded=1;whiteSpace=wrap;html=1;strokeColor=#E6E6E6;fillColor=#999999;fontSize=13;" vertex="1" parent="1">
          <mxGeometry x="581" y="220" width="89" height="40" as="geometry"/>
        </mxCell>
        <mxCell id="CJHnajEqTu75ODsMof4P-20" style="edgeStyle=orthogonalEdgeStyle;curved=1;rounded=0;orthogonalLoop=1;jettySize=auto;html=1;exitX=0;exitY=0.5;exitDx=0;exitDy=0;startArrow=classic;startFill=1;endArrow=oval;endFill=1;strokeColor=#ae4132;strokeWidth=2;fontSize=13;fillColor=#fad9d5;" edge="1" parent="1" source="CJHnajEqTu75ODsMof4P-23">
          <mxGeometry relative="1" as="geometry">
            <mxPoint x="500" y="280" as="targetPoint"/>
          </mxGeometry>
        </mxCell>
        <mxCell id="CJHnajEqTu75ODsMof4P-21" style="edgeStyle=orthogonalEdgeStyle;curved=1;rounded=0;orthogonalLoop=1;jettySize=auto;html=1;exitX=1;exitY=0.5;exitDx=0;exitDy=0;startArrow=none;startFill=0;endArrow=classic;endFill=1;strokeColor=#CC0066;strokeWidth=2;fontSize=13;entryX=0.897;entryY=1.025;entryDx=0;entryDy=0;entryPerimeter=0;" edge="1" parent="1" source="CJHnajEqTu75ODsMof4P-36" target="CJHnajEqTu75ODsMof4P-25">
          <mxGeometry relative="1" as="geometry">
            <mxPoint x="710" y="100" as="targetPoint"/>
            <Array as="points">
              <mxPoint x="707" y="300"/>
            </Array>
          </mxGeometry>
        </mxCell>
        <mxCell id="CJHnajEqTu75ODsMof4P-22" style="edgeStyle=orthogonalEdgeStyle;curved=1;rounded=0;orthogonalLoop=1;jettySize=auto;html=1;exitX=1;exitY=0.5;exitDx=0;exitDy=0;startArrow=none;startFill=0;endArrow=classic;endFill=1;strokeColor=#ae4132;strokeWidth=2;fontSize=13;fontColor=#990000;fillColor=#fad9d5;" edge="1" parent="1" source="CJHnajEqTu75ODsMof4P-23">
          <mxGeometry relative="1" as="geometry">
            <mxPoint x="700" y="460" as="targetPoint"/>
          </mxGeometry>
        </mxCell>
        <mxCell id="CJHnajEqTu75ODsMof4P-23" value="&lt;pre class=&quot;prettyprint&quot; style=&quot;margin-top: 0px ; margin-bottom: 0px ; padding: 0px ; white-space: pre-wrap ; overflow-wrap: break-word ; font-size: 12px ; text-align: left&quot;&gt;isConnectable&lt;/pre&gt;" style="rounded=1;whiteSpace=wrap;html=1;strokeColor=#E6E6E6;fillColor=#999999;fontSize=13;fontStyle=1" vertex="1" parent="1">
          <mxGeometry x="580" y="340" width="90" height="40" as="geometry"/>
        </mxCell>
        <mxCell id="CJHnajEqTu75ODsMof4P-24" style="edgeStyle=orthogonalEdgeStyle;curved=1;rounded=0;orthogonalLoop=1;jettySize=auto;html=1;exitX=0.125;exitY=1;exitDx=0;exitDy=0;entryX=0.5;entryY=0;entryDx=0;entryDy=0;startArrow=none;startFill=0;endArrow=classic;endFill=1;strokeColor=#10739e;strokeWidth=2;fontSize=13;fontColor=#990000;exitPerimeter=0;fillColor=#b1ddf0;" edge="1" parent="1" source="CJHnajEqTu75ODsMof4P-25" target="CJHnajEqTu75ODsMof4P-11">
          <mxGeometry relative="1" as="geometry"/>
        </mxCell>
        <mxCell id="CJHnajEqTu75ODsMof4P-25" value="&lt;span style=&quot;font-size: 17px&quot;&gt;&lt;b&gt;处理Thread&lt;br&gt;&lt;/b&gt;&lt;/span&gt;" style="rounded=1;whiteSpace=wrap;html=1;fillColor=#d0cee2;strokeColor=#56517e;" vertex="1" parent="1">
          <mxGeometry x="420" y="20" width="320" height="80" as="geometry"/>
        </mxCell>
        <mxCell id="CJHnajEqTu75ODsMof4P-26" value="&lt;span style=&quot;font-size: 17px&quot;&gt;&lt;b&gt;Client Channel&lt;br&gt;&lt;/b&gt;&lt;/span&gt;" style="rounded=1;whiteSpace=wrap;html=1;fillColor=#f8cecc;strokeColor=#b85450;rotation=0;" vertex="1" parent="1">
          <mxGeometry x="20" y="459" width="320" height="80" as="geometry"/>
        </mxCell>
        <mxCell id="CJHnajEqTu75ODsMof4P-27" value="OP_CONNECT" style="text;html=1;fontSize=13;fontStyle=1;horizontal=0;rotation=-180;fontColor=#000099;" vertex="1" parent="1">
          <mxGeometry x="20" y="354" width="40" height="30" as="geometry"/>
        </mxCell>
        <mxCell id="CJHnajEqTu75ODsMof4P-28" value="" style="endArrow=classic;html=1;strokeColor=#ae4132;strokeWidth=2;fontSize=13;exitX=0.034;exitY=1;exitDx=0;exitDy=0;exitPerimeter=0;entryX=0.038;entryY=-0.012;entryDx=0;entryDy=0;entryPerimeter=0;fillColor=#fad9d5;" edge="1" parent="1">
          <mxGeometry width="50" height="50" relative="1" as="geometry">
            <mxPoint x="300" y="458" as="sourcePoint"/>
            <mxPoint x="299" y="320" as="targetPoint"/>
          </mxGeometry>
        </mxCell>
        <mxCell id="CJHnajEqTu75ODsMof4P-29" value="" style="endArrow=classic;html=1;strokeColor=#ae4132;strokeWidth=2;fontSize=13;exitX=0.034;exitY=1;exitDx=0;exitDy=0;exitPerimeter=0;entryX=0.038;entryY=-0.012;entryDx=0;entryDy=0;entryPerimeter=0;fillColor=#fad9d5;" edge="1" parent="1">
          <mxGeometry width="50" height="50" relative="1" as="geometry">
            <mxPoint x="182" y="459" as="sourcePoint"/>
            <mxPoint x="180" y="321" as="targetPoint"/>
          </mxGeometry>
        </mxCell>
        <mxCell id="CJHnajEqTu75ODsMof4P-30" value="" style="endArrow=classic;html=1;strokeColor=#ae4132;strokeWidth=2;fontSize=13;exitX=0.034;exitY=1;exitDx=0;exitDy=0;exitPerimeter=0;entryX=0.038;entryY=-0.012;entryDx=0;entryDy=0;entryPerimeter=0;fillColor=#fad9d5;" edge="1" parent="1">
          <mxGeometry width="50" height="50" relative="1" as="geometry">
            <mxPoint x="60" y="459" as="sourcePoint"/>
            <mxPoint x="59" y="321" as="targetPoint"/>
          </mxGeometry>
        </mxCell>
        <mxCell id="CJHnajEqTu75ODsMof4P-31" value="OP_READ" style="text;html=1;fontSize=13;fontStyle=1;horizontal=0;rotation=-180;" vertex="1" parent="1">
          <mxGeometry x="29.5" y="365" width="150" height="30" as="geometry"/>
        </mxCell>
        <mxCell id="CJHnajEqTu75ODsMof4P-32" value="OP_WRITE" style="text;html=1;fontSize=13;fontStyle=1;horizontal=0;rotation=-180;" vertex="1" parent="1">
          <mxGeometry x="150" y="365" width="150" height="30" as="geometry"/>
        </mxCell>
        <mxCell id="CJHnajEqTu75ODsMof4P-33" style="edgeStyle=orthogonalEdgeStyle;curved=1;rounded=0;orthogonalLoop=1;jettySize=auto;html=1;exitX=0.125;exitY=0;exitDx=0;exitDy=0;entryX=0.5;entryY=1;entryDx=0;entryDy=0;startArrow=none;startFill=0;endArrow=classic;endFill=1;strokeColor=#ae4132;strokeWidth=2;fontSize=13;fontColor=#990000;exitPerimeter=0;fillColor=#fad9d5;" edge="1" parent="1" source="CJHnajEqTu75ODsMof4P-34" target="CJHnajEqTu75ODsMof4P-11">
          <mxGeometry relative="1" as="geometry"/>
        </mxCell>
        <mxCell id="CJHnajEqTu75ODsMof4P-34" value="&lt;span style=&quot;font-size: 17px&quot;&gt;&lt;b&gt;处理Thread&lt;br&gt;&lt;/b&gt;&lt;/span&gt;" style="rounded=1;whiteSpace=wrap;html=1;fillColor=#f8cecc;strokeColor=#b85450;" vertex="1" parent="1">
          <mxGeometry x="420" y="459" width="320" height="80" as="geometry"/>
        </mxCell>
        <mxCell id="CJHnajEqTu75ODsMof4P-35" style="edgeStyle=orthogonalEdgeStyle;curved=1;rounded=0;orthogonalLoop=1;jettySize=auto;html=1;exitX=1;exitY=0.5;exitDx=0;exitDy=0;startArrow=none;startFill=0;endArrow=classic;endFill=1;strokeColor=#CC0066;strokeWidth=2;fontSize=13;fontColor=#990000;" edge="1" parent="1" source="CJHnajEqTu75ODsMof4P-36">
          <mxGeometry relative="1" as="geometry">
            <mxPoint x="700" y="460" as="targetPoint"/>
          </mxGeometry>
        </mxCell>
        <mxCell id="CJHnajEqTu75ODsMof4P-36" value="&lt;b&gt;isReadable&lt;/b&gt;" style="rounded=1;whiteSpace=wrap;html=1;strokeColor=#E6E6E6;fillColor=#999999;fontSize=13;" vertex="1" parent="1">
          <mxGeometry x="581" y="280" width="89" height="40" as="geometry"/>
        </mxCell>
        <mxCell id="CJHnajEqTu75ODsMof4P-37" value="" style="shape=hexagon;perimeter=hexagonPerimeter2;whiteSpace=wrap;html=1;strokeColor=#10739e;fillColor=#b1ddf0;fontSize=13;" vertex="1" parent="1">
          <mxGeometry x="670" y="30" width="120" height="70" as="geometry"/>
        </mxCell>
        <mxCell id="CJHnajEqTu75ODsMof4P-38" value="&lt;span style=&quot;font-size: 17px&quot;&gt;&lt;b&gt;Client Channel&lt;br&gt;&lt;/b&gt;&lt;/span&gt;" style="rounded=1;whiteSpace=wrap;html=1;fillColor=#f8cecc;strokeColor=#b85450;rotation=0;" vertex="1" parent="1">
          <mxGeometry x="40" y="470" width="320" height="80" as="geometry"/>
        </mxCell>
        <mxCell id="CJHnajEqTu75ODsMof4P-39" value="&lt;span style=&quot;font-size: 17px&quot;&gt;&lt;b&gt;Client Channel&lt;br&gt;&lt;/b&gt;&lt;/span&gt;" style="rounded=1;whiteSpace=wrap;html=1;fillColor=#f8cecc;strokeColor=#b85450;rotation=0;" vertex="1" parent="1">
          <mxGeometry x="65" y="480" width="320" height="80" as="geometry"/>
        </mxCell>
        <mxCell id="CJHnajEqTu75ODsMof4P-40" value="" style="shape=hexagon;perimeter=hexagonPerimeter2;whiteSpace=wrap;html=1;strokeColor=#10739e;fillColor=#b1ddf0;fontSize=13;" vertex="1" parent="1">
          <mxGeometry x="680" y="25" width="120" height="70" as="geometry"/>
        </mxCell>
        <mxCell id="CJHnajEqTu75ODsMof4P-41" value="&lt;b style=&quot;color: rgb(0 , 0 , 0) ; font-size: 17px ; white-space: normal&quot;&gt;获取Client Channel&lt;/b&gt;" style="shape=hexagon;perimeter=hexagonPerimeter2;whiteSpace=wrap;html=1;strokeColor=#10739e;fillColor=#b1ddf0;fontSize=13;" vertex="1" parent="1">
          <mxGeometry x="690" y="20" width="120" height="70" as="geometry"/>
        </mxCell>
      </root>
    </mxGraphModel>
  </diagram>
</mxfile>
